<mxfile host="app.diagrams.net" modified="2023-06-11T13:52:29.315Z" agent="Mozilla/5.0 (Windows NT 10.0; Win64; x64) AppleWebKit/537.36 (KHTML, like Gecko) Chrome/112.0.0.0 Safari/537.36 OPR/98.0.0.0" etag="JDk4cJBdGh9vbCUdIl10" version="21.3.8" type="device">
  <diagram name="Page-1" id="FkpXO8C-VfUvPA45Zuzd">
    <mxGraphModel dx="1161" dy="632" grid="1" gridSize="10" guides="1" tooltips="1" connect="1" arrows="1" fold="1" page="1" pageScale="1" pageWidth="850" pageHeight="1100" math="0" shadow="0">
      <root>
        <mxCell id="0" />
        <mxCell id="1" parent="0" />
        <mxCell id="UGgIMyjsKy9L49LWKNLA-1" value="&lt;font style=&quot;font-size: 24px;&quot;&gt;Tests&lt;/font&gt;" style="swimlane;fontStyle=1;align=center;verticalAlign=top;childLayout=stackLayout;horizontal=1;startSize=40;horizontalStack=0;resizeParent=1;resizeParentMax=0;resizeLast=0;collapsible=1;marginBottom=0;whiteSpace=wrap;html=1;" parent="1" vertex="1">
          <mxGeometry x="145" y="80" width="560" height="458" as="geometry" />
        </mxCell>
        <mxCell id="UGgIMyjsKy9L49LWKNLA-2" value="&lt;font style=&quot;font-size: 24px;&quot;&gt;-jautajumi : string[]&lt;/font&gt;" style="text;strokeColor=none;fillColor=none;align=left;verticalAlign=top;spacingLeft=4;spacingRight=4;overflow=hidden;rotatable=0;points=[[0,0.5],[1,0.5]];portConstraint=eastwest;whiteSpace=wrap;html=1;" parent="UGgIMyjsKy9L49LWKNLA-1" vertex="1">
          <mxGeometry y="40" width="560" height="54" as="geometry" />
        </mxCell>
        <mxCell id="UGgIMyjsKy9L49LWKNLA-5" value="&lt;font style=&quot;font-size: 24px;&quot;&gt;-atbildes : string [][]&lt;/font&gt;" style="text;strokeColor=none;fillColor=none;align=left;verticalAlign=top;spacingLeft=4;spacingRight=4;overflow=hidden;rotatable=0;points=[[0,0.5],[1,0.5]];portConstraint=eastwest;whiteSpace=wrap;html=1;" parent="UGgIMyjsKy9L49LWKNLA-1" vertex="1">
          <mxGeometry y="94" width="560" height="50" as="geometry" />
        </mxCell>
        <mxCell id="UGgIMyjsKy9L49LWKNLA-6" value="&lt;font style=&quot;font-size: 24px;&quot;&gt;-parVaiNepAtbildes : int[][]&lt;/font&gt;&lt;div style=&quot;background-color:#2f2f2f;padding:0px 0px 0px 2px;&quot;&gt;&lt;div style=&quot;color: rgb(170, 170, 170); font-family: &amp;quot;Courier New&amp;quot;; font-size: 8pt;&quot;&gt;&lt;p style=&quot;background-color:#373737;margin:0;&quot;&gt;&lt;span style=&quot;color:#d9e8f7;&quot;&gt;&lt;/span&gt;&lt;/p&gt;&lt;/div&gt;&lt;/div&gt;" style="text;strokeColor=none;fillColor=none;align=left;verticalAlign=top;spacingLeft=4;spacingRight=4;overflow=hidden;rotatable=0;points=[[0,0.5],[1,0.5]];portConstraint=eastwest;whiteSpace=wrap;html=1;" parent="UGgIMyjsKy9L49LWKNLA-1" vertex="1">
          <mxGeometry y="144" width="560" height="50" as="geometry" />
        </mxCell>
        <mxCell id="UGgIMyjsKy9L49LWKNLA-3" value="" style="line;strokeWidth=1;fillColor=none;align=left;verticalAlign=middle;spacingTop=-1;spacingLeft=3;spacingRight=3;rotatable=0;labelPosition=right;points=[];portConstraint=eastwest;strokeColor=inherit;" parent="UGgIMyjsKy9L49LWKNLA-1" vertex="1">
          <mxGeometry y="194" width="560" height="8" as="geometry" />
        </mxCell>
        <mxCell id="UGgIMyjsKy9L49LWKNLA-4" value="&lt;font style=&quot;font-size: 24px;&quot;&gt;+main(String[]): void&lt;/font&gt;" style="text;strokeColor=none;fillColor=none;align=left;verticalAlign=top;spacingLeft=4;spacingRight=4;overflow=hidden;rotatable=0;points=[[0,0.5],[1,0.5]];portConstraint=eastwest;whiteSpace=wrap;html=1;" parent="UGgIMyjsKy9L49LWKNLA-1" vertex="1">
          <mxGeometry y="202" width="560" height="52" as="geometry" />
        </mxCell>
        <mxCell id="UGgIMyjsKy9L49LWKNLA-7" value="&lt;font style=&quot;font-size: 24px;&quot;&gt;+saktTestu() : void&lt;/font&gt;" style="text;strokeColor=none;fillColor=none;align=left;verticalAlign=top;spacingLeft=4;spacingRight=4;overflow=hidden;rotatable=0;points=[[0,0.5],[1,0.5]];portConstraint=eastwest;whiteSpace=wrap;html=1;" parent="UGgIMyjsKy9L49LWKNLA-1" vertex="1">
          <mxGeometry y="254" width="560" height="50" as="geometry" />
        </mxCell>
        <mxCell id="UGgIMyjsKy9L49LWKNLA-10" value="&lt;font style=&quot;font-size: 24px;&quot;&gt;+parbauditAtbildes(int, boolean[]) : boolean&amp;nbsp;&lt;/font&gt;&lt;div style=&quot;background-color:#2f2f2f;padding:0px 0px 0px 2px;&quot;&gt;&lt;div style=&quot;color: rgb(170, 170, 170); font-family: &amp;quot;Courier New&amp;quot;; font-size: 8pt;&quot;&gt;&lt;p style=&quot;background-color:#373737;margin:0;&quot;&gt;&lt;span style=&quot;color:#d9e8f7;&quot;&gt;&lt;/span&gt;&lt;/p&gt;&lt;/div&gt;&lt;/div&gt;" style="text;strokeColor=none;fillColor=none;align=left;verticalAlign=top;spacingLeft=4;spacingRight=4;overflow=hidden;rotatable=0;points=[[0,0.5],[1,0.5]];portConstraint=eastwest;whiteSpace=wrap;html=1;" parent="UGgIMyjsKy9L49LWKNLA-1" vertex="1">
          <mxGeometry y="304" width="560" height="50" as="geometry" />
        </mxCell>
        <mxCell id="UGgIMyjsKy9L49LWKNLA-9" value="&lt;font style=&quot;font-size: 24px;&quot;&gt;+satur(int[], int) : boolean&lt;/font&gt;" style="text;strokeColor=none;fillColor=none;align=left;verticalAlign=top;spacingLeft=4;spacingRight=4;overflow=hidden;rotatable=0;points=[[0,0.5],[1,0.5]];portConstraint=eastwest;whiteSpace=wrap;html=1;" parent="UGgIMyjsKy9L49LWKNLA-1" vertex="1">
          <mxGeometry y="354" width="560" height="50" as="geometry" />
        </mxCell>
        <mxCell id="UGgIMyjsKy9L49LWKNLA-8" value="&lt;font style=&quot;font-size: 24px;&quot;&gt;+paraditRezultatus(boolean[]) : void&lt;/font&gt;&lt;div style=&quot;background-color:#2f2f2f;padding:0px 0px 0px 2px;&quot;&gt;&lt;div style=&quot;color: rgb(170, 170, 170); font-family: &amp;quot;Courier New&amp;quot;; font-size: 8pt;&quot;&gt;&lt;p style=&quot;background-color:#373737;margin:0;&quot;&gt;&lt;span style=&quot;color:#d9e8f7;&quot;&gt;&lt;/span&gt;&lt;/p&gt;&lt;/div&gt;&lt;/div&gt;" style="text;strokeColor=none;fillColor=none;align=left;verticalAlign=top;spacingLeft=4;spacingRight=4;overflow=hidden;rotatable=0;points=[[0,0.5],[1,0.5]];portConstraint=eastwest;whiteSpace=wrap;html=1;" parent="UGgIMyjsKy9L49LWKNLA-1" vertex="1">
          <mxGeometry y="404" width="560" height="54" as="geometry" />
        </mxCell>
      </root>
    </mxGraphModel>
  </diagram>
</mxfile>
